<?xml version="1.0" encoding="UTF-8" standalone="no"?>
<!DOCTYPE svg PUBLIC "-//W3C//DTD SVG 1.1//EN"
 "http://www.w3.org/Graphics/SVG/1.1/DTD/svg11.dtd">
<!-- Generated by graphviz version 2.47.3 (20210619.1520)
 -->
<!-- Title: dependencies Pages: 1 -->
<svg width="262pt" height="174pt"
 viewBox="0.00 0.00 262.00 173.80" xmlns="http://www.w3.org/2000/svg" xmlns:xlink="http://www.w3.org/1999/xlink">
<g id="graph0" class="graph" transform="scale(1 1) rotate(0) translate(4 169.8)">
<title>dependencies</title>
<polygon fill="white" stroke="transparent" points="-4,4 -4,-169.8 258,-169.8 258,4 -4,4"/>
<text text-anchor="middle" x="127" y="-8.2" font-family="sans-serif" font-size="14.00">dependencies</text>
<g id="clust1" class="cluster">
<title>cluster_CoreModule</title>
<polygon fill="none" stroke="black" stroke-dasharray="1,5" points="8,-32.8 8,-157.8 246,-157.8 246,-32.8 8,-32.8"/>
</g>
<g id="clust6" class="cluster">
<title>cluster_CoreModule_providers</title>
<polygon fill="none" stroke="black" points="16,-40.8 16,-92.8 238,-92.8 238,-40.8 16,-40.8"/>
</g>
<!-- HttpLoadingInterceptor -->
<g id="node1" class="node">
<title>HttpLoadingInterceptor</title>
<ellipse fill="#fdb462" stroke="black" cx="127" cy="-66.8" rx="102.99" ry="18"/>
<text text-anchor="middle" x="127" y="-62.6" font-family="Times,serif" font-size="14.00">HttpLoadingInterceptor</text>
</g>
<!-- CoreModule -->
<g id="node2" class="node">
<title>CoreModule</title>
<polygon fill="#8dd3c7" stroke="black" points="170.26,-149.8 167.26,-153.8 146.26,-153.8 143.26,-149.8 83.74,-149.8 83.74,-113.8 170.26,-113.8 170.26,-149.8"/>
<text text-anchor="middle" x="127" y="-127.6" font-family="Times,serif" font-size="14.00">CoreModule</text>
</g>
<!-- HttpLoadingInterceptor&#45;&gt;CoreModule -->
<g id="edge1" class="edge">
<title>HttpLoadingInterceptor&#45;&gt;CoreModule</title>
<path fill="none" stroke="black" d="M127,-84.91C127,-84.91 127,-103.79 127,-103.79"/>
<polygon fill="black" stroke="black" points="123.5,-103.79 127,-113.79 130.5,-103.79 123.5,-103.79"/>
</g>
</g>
</svg>
