<?xml version="1.0" encoding="UTF-8" standalone="no"?>
<!DOCTYPE svg PUBLIC "-//W3C//DTD SVG 1.1//EN"
 "http://www.w3.org/Graphics/SVG/1.1/DTD/svg11.dtd">
<!-- Generated by graphviz version 2.47.3 (20210619.1520)
 -->
<!-- Title: dependencies Pages: 1 -->
<svg width="565pt" height="247pt"
 viewBox="0.00 0.00 565.00 246.80" xmlns="http://www.w3.org/2000/svg" xmlns:xlink="http://www.w3.org/1999/xlink">
<g id="graph0" class="graph" transform="scale(1 1) rotate(0) translate(4 242.8)">
<title>dependencies</title>
<polygon fill="white" stroke="transparent" points="-4,4 -4,-242.8 561,-242.8 561,4 -4,4"/>
<text text-anchor="middle" x="278.5" y="-8.2" font-family="sans-serif" font-size="14.00">dependencies</text>
<g id="clust1" class="cluster">
<title>cluster_SharedModule</title>
<polygon fill="none" stroke="black" stroke-dasharray="1,5" points="8,-32.8 8,-230.8 549,-230.8 549,-32.8 8,-32.8"/>
</g>
<g id="clust6" class="cluster">
<title>cluster_SharedModule_exports</title>
<polygon fill="none" stroke="black" points="190,-170.8 190,-222.8 376,-222.8 376,-170.8 190,-170.8"/>
</g>
<g id="clust2" class="cluster">
<title>cluster_SharedModule_declarations</title>
<polygon fill="none" stroke="black" points="192,-40.8 192,-92.8 541,-92.8 541,-40.8 192,-40.8"/>
</g>
<g id="clust5" class="cluster">
<title>cluster_SharedModule_imports</title>
<polygon fill="none" stroke="black" points="16,-40.8 16,-92.8 184,-92.8 184,-40.8 16,-40.8"/>
</g>
<!-- ErrorDialogComponent -->
<g id="node1" class="node">
<title>ErrorDialogComponent</title>
<polygon fill="#ffffb3" stroke="black" points="533.47,-84.8 384.53,-84.8 384.53,-48.8 533.47,-48.8 533.47,-84.8"/>
<text text-anchor="middle" x="459" y="-62.6" font-family="Times,serif" font-size="14.00">ErrorDialogComponent</text>
</g>
<!-- SharedModule -->
<g id="node3" class="node">
<title>SharedModule</title>
<polygon fill="#8dd3c7" stroke="black" points="332.42,-149.8 329.42,-153.8 308.42,-153.8 305.42,-149.8 233.58,-149.8 233.58,-113.8 332.42,-113.8 332.42,-149.8"/>
<text text-anchor="middle" x="283" y="-127.6" font-family="Times,serif" font-size="14.00">SharedModule</text>
</g>
<!-- ErrorDialogComponent&#45;&gt;SharedModule -->
<g id="edge1" class="edge">
<title>ErrorDialogComponent&#45;&gt;SharedModule</title>
<path fill="none" stroke="black" d="M459,-84.91C459,-104.14 459,-131.8 459,-131.8 459,-131.8 342.49,-131.8 342.49,-131.8"/>
<polygon fill="black" stroke="black" points="342.49,-128.3 332.49,-131.8 342.49,-135.3 342.49,-128.3"/>
</g>
<!-- LoadingDialogComponent -->
<g id="node2" class="node">
<title>LoadingDialogComponent</title>
<polygon fill="#ffffb3" stroke="black" points="366.09,-84.8 199.91,-84.8 199.91,-48.8 366.09,-48.8 366.09,-84.8"/>
<text text-anchor="middle" x="283" y="-62.6" font-family="Times,serif" font-size="14.00">LoadingDialogComponent</text>
</g>
<!-- LoadingDialogComponent&#45;&gt;SharedModule -->
<g id="edge2" class="edge">
<title>LoadingDialogComponent&#45;&gt;SharedModule</title>
<path fill="none" stroke="black" d="M283,-84.91C283,-84.91 283,-103.79 283,-103.79"/>
<polygon fill="black" stroke="black" points="279.5,-103.79 283,-113.79 286.5,-103.79 279.5,-103.79"/>
</g>
<!-- LoadingDialogComponent  -->
<g id="node5" class="node">
<title>LoadingDialogComponent </title>
<polygon fill="#fb8072" stroke="black" points="367.59,-214.8 198.41,-214.8 198.41,-178.8 367.59,-178.8 367.59,-214.8"/>
<text text-anchor="middle" x="283" y="-192.6" font-family="Times,serif" font-size="14.00">LoadingDialogComponent </text>
</g>
<!-- SharedModule&#45;&gt;LoadingDialogComponent  -->
<g id="edge4" class="edge">
<title>SharedModule&#45;&gt;LoadingDialogComponent </title>
<path fill="none" stroke="black" stroke-dasharray="5,2" d="M283,-149.91C283,-149.91 283,-168.79 283,-168.79"/>
<polygon fill="black" stroke="black" points="279.5,-168.79 283,-178.79 286.5,-168.79 279.5,-168.79"/>
</g>
<!-- AngularMaterialModule -->
<g id="node4" class="node">
<title>AngularMaterialModule</title>
<polygon fill="#8dd3c7" stroke="black" points="176.34,-84.8 173.34,-88.8 152.34,-88.8 149.34,-84.8 23.66,-84.8 23.66,-48.8 176.34,-48.8 176.34,-84.8"/>
<text text-anchor="middle" x="100" y="-62.6" font-family="Times,serif" font-size="14.00">AngularMaterialModule</text>
</g>
<!-- AngularMaterialModule&#45;&gt;SharedModule -->
<g id="edge3" class="edge">
<title>AngularMaterialModule&#45;&gt;SharedModule</title>
<path fill="none" stroke="black" d="M100,-84.91C100,-104.14 100,-131.8 100,-131.8 100,-131.8 223.48,-131.8 223.48,-131.8"/>
<polygon fill="black" stroke="black" points="223.48,-135.3 233.48,-131.8 223.48,-128.3 223.48,-135.3"/>
</g>
</g>
</svg>
