<?xml version="1.0" encoding="UTF-8" standalone="no"?>
<!DOCTYPE svg PUBLIC "-//W3C//DTD SVG 1.1//EN"
 "http://www.w3.org/Graphics/SVG/1.1/DTD/svg11.dtd">
<!-- Generated by graphviz version 2.47.3 (20210619.1520)
 -->
<!-- Title: dependencies Pages: 1 -->
<svg width="639pt" height="174pt"
 viewBox="0.00 0.00 639.00 173.80" xmlns="http://www.w3.org/2000/svg" xmlns:xlink="http://www.w3.org/1999/xlink">
<g id="graph0" class="graph" transform="scale(1 1) rotate(0) translate(4 169.8)">
<title>dependencies</title>
<polygon fill="white" stroke="transparent" points="-4,4 -4,-169.8 635,-169.8 635,4 -4,4"/>
<text text-anchor="middle" x="315.5" y="-8.2" font-family="sans-serif" font-size="14.00">dependencies</text>
<g id="clust1" class="cluster">
<title>cluster_AuthModule</title>
<polygon fill="none" stroke="black" stroke-dasharray="1,5" points="8,-32.8 8,-157.8 623,-157.8 623,-32.8 8,-32.8"/>
</g>
<g id="clust5" class="cluster">
<title>cluster_AuthModule_imports</title>
<polygon fill="none" stroke="black" points="296,-40.8 296,-92.8 615,-92.8 615,-40.8 296,-40.8"/>
</g>
<g id="clust2" class="cluster">
<title>cluster_AuthModule_declarations</title>
<polygon fill="none" stroke="black" points="16,-40.8 16,-92.8 288,-92.8 288,-40.8 16,-40.8"/>
</g>
<!-- LoginComponent -->
<g id="node1" class="node">
<title>LoginComponent</title>
<polygon fill="#ffffb3" stroke="black" points="280.28,-84.8 165.72,-84.8 165.72,-48.8 280.28,-48.8 280.28,-84.8"/>
<text text-anchor="middle" x="223" y="-62.6" font-family="Times,serif" font-size="14.00">LoginComponent</text>
</g>
<!-- AuthModule -->
<g id="node3" class="node">
<title>AuthModule</title>
<polygon fill="#8dd3c7" stroke="black" points="339.55,-149.8 336.55,-153.8 315.55,-153.8 312.55,-149.8 252.45,-149.8 252.45,-113.8 339.55,-113.8 339.55,-149.8"/>
<text text-anchor="middle" x="296" y="-127.6" font-family="Times,serif" font-size="14.00">AuthModule</text>
</g>
<!-- LoginComponent&#45;&gt;AuthModule -->
<g id="edge1" class="edge">
<title>LoginComponent&#45;&gt;AuthModule</title>
<path fill="none" stroke="black" d="M266.31,-84.91C266.31,-84.91 266.31,-103.79 266.31,-103.79"/>
<polygon fill="black" stroke="black" points="262.81,-103.79 266.31,-113.79 269.81,-103.79 262.81,-103.79"/>
</g>
<!-- SignUpComponent -->
<g id="node2" class="node">
<title>SignUpComponent</title>
<polygon fill="#ffffb3" stroke="black" points="148.11,-84.8 23.89,-84.8 23.89,-48.8 148.11,-48.8 148.11,-84.8"/>
<text text-anchor="middle" x="86" y="-62.6" font-family="Times,serif" font-size="14.00">SignUpComponent</text>
</g>
<!-- SignUpComponent&#45;&gt;AuthModule -->
<g id="edge2" class="edge">
<title>SignUpComponent&#45;&gt;AuthModule</title>
<path fill="none" stroke="black" d="M86,-84.91C86,-104.14 86,-131.8 86,-131.8 86,-131.8 242.23,-131.8 242.23,-131.8"/>
<polygon fill="black" stroke="black" points="242.23,-135.3 252.23,-131.8 242.23,-128.3 242.23,-135.3"/>
</g>
<!-- AngularMaterialModule -->
<g id="node4" class="node">
<title>AngularMaterialModule</title>
<polygon fill="#8dd3c7" stroke="black" points="607.34,-84.8 604.34,-88.8 583.34,-88.8 580.34,-84.8 454.66,-84.8 454.66,-48.8 607.34,-48.8 607.34,-84.8"/>
<text text-anchor="middle" x="531" y="-62.6" font-family="Times,serif" font-size="14.00">AngularMaterialModule</text>
</g>
<!-- AngularMaterialModule&#45;&gt;AuthModule -->
<g id="edge3" class="edge">
<title>AngularMaterialModule&#45;&gt;AuthModule</title>
<path fill="none" stroke="black" d="M531,-84.91C531,-104.14 531,-131.8 531,-131.8 531,-131.8 349.65,-131.8 349.65,-131.8"/>
<polygon fill="black" stroke="black" points="349.65,-128.3 339.65,-131.8 349.65,-135.3 349.65,-128.3"/>
</g>
<!-- AuthRoutingModule -->
<g id="node5" class="node">
<title>AuthRoutingModule</title>
<polygon fill="#8dd3c7" stroke="black" points="436.17,-84.8 433.17,-88.8 412.17,-88.8 409.17,-84.8 303.83,-84.8 303.83,-48.8 436.17,-48.8 436.17,-84.8"/>
<text text-anchor="middle" x="370" y="-62.6" font-family="Times,serif" font-size="14.00">AuthRoutingModule</text>
</g>
<!-- AuthRoutingModule&#45;&gt;AuthModule -->
<g id="edge4" class="edge">
<title>AuthRoutingModule&#45;&gt;AuthModule</title>
<path fill="none" stroke="black" d="M321.72,-84.91C321.72,-84.91 321.72,-103.79 321.72,-103.79"/>
<polygon fill="black" stroke="black" points="318.22,-103.79 321.72,-113.79 325.22,-103.79 318.22,-103.79"/>
</g>
</g>
</svg>
