<?xml version="1.0" encoding="UTF-8" standalone="no"?>
<!DOCTYPE svg PUBLIC "-//W3C//DTD SVG 1.1//EN"
 "http://www.w3.org/Graphics/SVG/1.1/DTD/svg11.dtd">
<!-- Generated by graphviz version 2.47.3 (20210619.1520)
 -->
<!-- Title: dependencies Pages: 1 -->
<svg width="394pt" height="174pt"
 viewBox="0.00 0.00 394.00 173.80" xmlns="http://www.w3.org/2000/svg" xmlns:xlink="http://www.w3.org/1999/xlink">
<g id="graph0" class="graph" transform="scale(1 1) rotate(0) translate(4 169.8)">
<title>dependencies</title>
<polygon fill="white" stroke="transparent" points="-4,4 -4,-169.8 390,-169.8 390,4 -4,4"/>
<text text-anchor="middle" x="193" y="-8.2" font-family="sans-serif" font-size="14.00">dependencies</text>
<g id="clust1" class="cluster">
<title>cluster_ErrorDemoModule</title>
<polygon fill="none" stroke="black" stroke-dasharray="1,5" points="8,-32.8 8,-157.8 378,-157.8 378,-32.8 8,-32.8"/>
</g>
<g id="clust2" class="cluster">
<title>cluster_ErrorDemoModule_declarations</title>
<polygon fill="none" stroke="black" points="208,-40.8 208,-92.8 370,-92.8 370,-40.8 208,-40.8"/>
</g>
<g id="clust4" class="cluster">
<title>cluster_ErrorDemoModule_imports</title>
<polygon fill="none" stroke="black" points="16,-40.8 16,-92.8 200,-92.8 200,-40.8 16,-40.8"/>
</g>
<!-- ErrorDemoComponent -->
<g id="node1" class="node">
<title>ErrorDemoComponent</title>
<polygon fill="#ffffb3" stroke="black" points="361.58,-84.8 216.42,-84.8 216.42,-48.8 361.58,-48.8 361.58,-84.8"/>
<text text-anchor="middle" x="289" y="-62.6" font-family="Times,serif" font-size="14.00">ErrorDemoComponent</text>
</g>
<!-- ErrorDemoModule -->
<g id="node2" class="node">
<title>ErrorDemoModule</title>
<polygon fill="#8dd3c7" stroke="black" points="259.8,-149.8 256.8,-153.8 235.8,-153.8 232.8,-149.8 136.2,-149.8 136.2,-113.8 259.8,-113.8 259.8,-149.8"/>
<text text-anchor="middle" x="198" y="-127.6" font-family="Times,serif" font-size="14.00">ErrorDemoModule</text>
</g>
<!-- ErrorDemoComponent&#45;&gt;ErrorDemoModule -->
<g id="edge1" class="edge">
<title>ErrorDemoComponent&#45;&gt;ErrorDemoModule</title>
<path fill="none" stroke="black" d="M238.05,-84.91C238.05,-84.91 238.05,-103.79 238.05,-103.79"/>
<polygon fill="black" stroke="black" points="234.55,-103.79 238.05,-113.79 241.55,-103.79 234.55,-103.79"/>
</g>
<!-- ErrorDemoRoutingModule -->
<g id="node3" class="node">
<title>ErrorDemoRoutingModule</title>
<polygon fill="#8dd3c7" stroke="black" points="192.41,-84.8 189.41,-88.8 168.41,-88.8 165.41,-84.8 23.59,-84.8 23.59,-48.8 192.41,-48.8 192.41,-84.8"/>
<text text-anchor="middle" x="108" y="-62.6" font-family="Times,serif" font-size="14.00">ErrorDemoRoutingModule</text>
</g>
<!-- ErrorDemoRoutingModule&#45;&gt;ErrorDemoModule -->
<g id="edge2" class="edge">
<title>ErrorDemoRoutingModule&#45;&gt;ErrorDemoModule</title>
<path fill="none" stroke="black" d="M164.28,-84.91C164.28,-84.91 164.28,-103.79 164.28,-103.79"/>
<polygon fill="black" stroke="black" points="160.78,-103.79 164.28,-113.79 167.78,-103.79 160.78,-103.79"/>
</g>
</g>
</svg>
