<?xml version="1.0" encoding="UTF-8" standalone="no"?>
<!DOCTYPE svg PUBLIC "-//W3C//DTD SVG 1.1//EN"
 "http://www.w3.org/Graphics/SVG/1.1/DTD/svg11.dtd">
<!-- Generated by graphviz version 2.47.3 (20210619.1520)
 -->
<!-- Title: dependencies Pages: 1 -->
<svg width="688pt" height="247pt"
 viewBox="0.00 0.00 688.00 246.80" xmlns="http://www.w3.org/2000/svg" xmlns:xlink="http://www.w3.org/1999/xlink">
<g id="graph0" class="graph" transform="scale(1 1) rotate(0) translate(4 242.8)">
<title>dependencies</title>
<polygon fill="white" stroke="transparent" points="-4,4 -4,-242.8 684,-242.8 684,4 -4,4"/>
<text text-anchor="middle" x="340" y="-8.2" font-family="sans-serif" font-size="14.00">dependencies</text>
<g id="clust1" class="cluster">
<title>cluster_AppModule</title>
<polygon fill="none" stroke="black" stroke-dasharray="1,5" points="8,-32.8 8,-230.8 672,-230.8 672,-32.8 8,-32.8"/>
</g>
<g id="clust5" class="cluster">
<title>cluster_AppModule_imports</title>
<polygon fill="none" stroke="black" points="298,-40.8 298,-92.8 664,-92.8 664,-40.8 298,-40.8"/>
</g>
<g id="clust2" class="cluster">
<title>cluster_AppModule_declarations</title>
<polygon fill="none" stroke="black" points="16,-40.8 16,-92.8 290,-92.8 290,-40.8 16,-40.8"/>
</g>
<g id="clust7" class="cluster">
<title>cluster_AppModule_bootstrap</title>
<polygon fill="none" stroke="black" points="293,-170.8 293,-222.8 417,-222.8 417,-170.8 293,-170.8"/>
</g>
<!-- AppComponent -->
<g id="node1" class="node">
<title>AppComponent</title>
<polygon fill="#ffffb3" stroke="black" points="281.94,-84.8 176.06,-84.8 176.06,-48.8 281.94,-48.8 281.94,-84.8"/>
<text text-anchor="middle" x="229" y="-62.6" font-family="Times,serif" font-size="14.00">AppComponent</text>
</g>
<!-- AppModule -->
<g id="node3" class="node">
<title>AppModule</title>
<polygon fill="#8dd3c7" stroke="black" points="396.66,-149.8 393.66,-153.8 372.66,-153.8 369.66,-149.8 313.34,-149.8 313.34,-113.8 396.66,-113.8 396.66,-149.8"/>
<text text-anchor="middle" x="355" y="-127.6" font-family="Times,serif" font-size="14.00">AppModule</text>
</g>
<!-- AppComponent&#45;&gt;AppModule -->
<g id="edge1" class="edge">
<title>AppComponent&#45;&gt;AppModule</title>
<path fill="none" stroke="black" d="M229,-84.82C229,-102.17 229,-125.8 229,-125.8 229,-125.8 303.04,-125.8 303.04,-125.8"/>
<polygon fill="black" stroke="black" points="303.04,-129.3 313.04,-125.8 303.04,-122.3 303.04,-129.3"/>
</g>
<!-- WelcomeComponent -->
<g id="node2" class="node">
<title>WelcomeComponent</title>
<polygon fill="#ffffb3" stroke="black" points="158.47,-84.8 23.53,-84.8 23.53,-48.8 158.47,-48.8 158.47,-84.8"/>
<text text-anchor="middle" x="91" y="-62.6" font-family="Times,serif" font-size="14.00">WelcomeComponent</text>
</g>
<!-- WelcomeComponent&#45;&gt;AppModule -->
<g id="edge2" class="edge">
<title>WelcomeComponent&#45;&gt;AppModule</title>
<path fill="none" stroke="black" d="M91,-85.08C91,-106.12 91,-137.8 91,-137.8 91,-137.8 303.17,-137.8 303.17,-137.8"/>
<polygon fill="black" stroke="black" points="303.17,-141.3 313.17,-137.8 303.17,-134.3 303.17,-141.3"/>
</g>
<!-- AppComponent  -->
<g id="node7" class="node">
<title>AppComponent </title>
<polygon fill="#80b1d3" stroke="black" points="409.44,-214.8 300.56,-214.8 300.56,-178.8 409.44,-178.8 409.44,-214.8"/>
<text text-anchor="middle" x="355" y="-192.6" font-family="Times,serif" font-size="14.00">AppComponent </text>
</g>
<!-- AppModule&#45;&gt;AppComponent  -->
<g id="edge6" class="edge">
<title>AppModule&#45;&gt;AppComponent </title>
<path fill="none" stroke="black" stroke-dasharray="1,5" d="M355,-149.91C355,-149.91 355,-168.79 355,-168.79"/>
<polygon fill="black" stroke="black" points="351.5,-168.79 355,-178.79 358.5,-168.79 351.5,-168.79"/>
</g>
<!-- AppRoutingModule -->
<g id="node4" class="node">
<title>AppRoutingModule</title>
<polygon fill="#8dd3c7" stroke="black" points="656.27,-84.8 653.27,-88.8 632.27,-88.8 629.27,-84.8 527.73,-84.8 527.73,-48.8 656.27,-48.8 656.27,-84.8"/>
<text text-anchor="middle" x="592" y="-62.6" font-family="Times,serif" font-size="14.00">AppRoutingModule</text>
</g>
<!-- AppRoutingModule&#45;&gt;AppModule -->
<g id="edge3" class="edge">
<title>AppRoutingModule&#45;&gt;AppModule</title>
<path fill="none" stroke="black" d="M592,-85.08C592,-106.12 592,-137.8 592,-137.8 592,-137.8 406.83,-137.8 406.83,-137.8"/>
<polygon fill="black" stroke="black" points="406.83,-134.3 396.83,-137.8 406.83,-141.3 406.83,-134.3"/>
</g>
<!-- CoreModule -->
<g id="node5" class="node">
<title>CoreModule</title>
<polygon fill="#8dd3c7" stroke="black" points="509.26,-84.8 506.26,-88.8 485.26,-88.8 482.26,-84.8 422.74,-84.8 422.74,-48.8 509.26,-48.8 509.26,-84.8"/>
<text text-anchor="middle" x="466" y="-62.6" font-family="Times,serif" font-size="14.00">CoreModule</text>
</g>
<!-- CoreModule&#45;&gt;AppModule -->
<g id="edge4" class="edge">
<title>CoreModule&#45;&gt;AppModule</title>
<path fill="none" stroke="black" d="M466,-84.82C466,-102.17 466,-125.8 466,-125.8 466,-125.8 406.96,-125.8 406.96,-125.8"/>
<polygon fill="black" stroke="black" points="406.96,-122.3 396.96,-125.8 406.96,-129.3 406.96,-122.3"/>
</g>
<!-- SharedModule -->
<g id="node6" class="node">
<title>SharedModule</title>
<polygon fill="#8dd3c7" stroke="black" points="404.42,-84.8 401.42,-88.8 380.42,-88.8 377.42,-84.8 305.58,-84.8 305.58,-48.8 404.42,-48.8 404.42,-84.8"/>
<text text-anchor="middle" x="355" y="-62.6" font-family="Times,serif" font-size="14.00">SharedModule</text>
</g>
<!-- SharedModule&#45;&gt;AppModule -->
<g id="edge5" class="edge">
<title>SharedModule&#45;&gt;AppModule</title>
<path fill="none" stroke="black" d="M355,-84.91C355,-84.91 355,-103.79 355,-103.79"/>
<polygon fill="black" stroke="black" points="351.5,-103.79 355,-113.79 358.5,-103.79 351.5,-103.79"/>
</g>
</g>
</svg>
